{
    "asset" : {
        "generator" : "Khronos glTF Blender I/O v3.3.32",
        "version" : "2.0"
    },
    "scene" : 0,
    "scenes" : [
        {
            "name" : "Scene",
            "nodes" : [
                0
            ]
        }
    ],
    "nodes" : [
        {
            "mesh" : 0,
            "name" : "Retopo_Cylinder",
            "rotation" : [
                0,
                -0.1497938632965088,
                0,
                0.988717257976532
            ],
            "scale" : [
                2.5810046195983887,
                1.1045536994934082,
                2.500452756881714
            ],
            "translation" : [
                -1.4837923049926758,
                -5.286721706390381,
                -0.800496518611908
            ]
        }
    ],
    "materials" : [
        {
            "doubleSided" : true,
            "name" : "Material.004",
            "normalTexture" : {
                "index" : 0
            },
            "pbrMetallicRoughness" : {
                "baseColorTexture" : {
                    "index" : 1
                },
                "metallicFactor" : 0,
                "metallicRoughnessTexture" : {
                    "index" : 2
                }
            }
        }
    ],
    "meshes" : [
        {
            "name" : "mesh",
            "primitives" : [
                {
                    "attributes" : {
                        "POSITION" : 0,
                        "NORMAL" : 1,
                        "TEXCOORD_0" : 2
                    },
                    "indices" : 3,
                    "material" : 0
                }
            ]
        }
    ],
    "textures" : [
        {
            "sampler" : 0,
            "source" : 0
        },
        {
            "sampler" : 0,
            "source" : 1
        },
        {
            "sampler" : 0,
            "source" : 2
        }
    ],
    "images" : [
        {
            "bufferView" : 4,
            "mimeType" : "image/png",
            "name" : "topblender_Material.004_Normal"
        },
        {
            "bufferView" : 5,
            "mimeType" : "image/png",
            "name" : "topblender_Material.004_BaseColor"
        },
        {
            "bufferView" : 6,
            "mimeType" : "image/png",
            "name" : "topblender_Material.004_Roughness"
        }
    ],
    "accessors" : [
        {
            "bufferView" : 0,
            "componentType" : 5126,
            "count" : 17920,
            "max" : [
                0.9845755696296692,
                0.8613249063491821,
                1.0074106454849243
            ],
            "min" : [
                -1.0116440057754517,
                -1.2223135232925415,
                -1.0180537700653076
            ],
            "type" : "VEC3"
        },
        {
            "bufferView" : 1,
            "componentType" : 5126,
            "count" : 17920,
            "type" : "VEC3"
        },
        {
            "bufferView" : 2,
            "componentType" : 5126,
            "count" : 17920,
            "type" : "VEC2"
        },
        {
            "bufferView" : 3,
            "componentType" : 5123,
            "count" : 26880,
            "type" : "SCALAR"
        }
    ],
    "bufferViews" : [
        {
            "buffer" : 0,
            "byteLength" : 215040,
            "byteOffset" : 0,
            "target" : 34962
        },
        {
            "buffer" : 0,
            "byteLength" : 215040,
            "byteOffset" : 215040,
            "target" : 34962
        },
        {
            "buffer" : 0,
            "byteLength" : 143360,
            "byteOffset" : 430080,
            "target" : 34962
        },
        {
            "buffer" : 0,
            "byteLength" : 53760,
            "byteOffset" : 573440,
            "target" : 34963
        },
        {
            "buffer" : 0,
            "byteLength" : 211051,
            "byteOffset" : 627200
        },
        {
            "buffer" : 0,
            "byteLength" : 48203,
            "byteOffset" : 838252
        },
        {
            "buffer" : 0,
            "byteLength" : 15801,
            "byteOffset" : 886456
        }
    ],
    "samplers" : [
        {
            "magFilter" : 9729,
            "minFilter" : 9987
        }
    ],
    "buffers" : [
        {
            "byteLength" : 902260,
            "uri" : "data:application/octet-stream;base64,"
        }
    ]
}
