{
    "asset" : {
        "generator" : "Khronos glTF Blender I/O v3.3.32",
        "version" : "2.0"
    },
    "scene" : 0,
    "scenes" : [
        {
            "name" : "Scene",
            "nodes" : [
                0
            ]
        }
    ],
    "nodes" : [
        {
            "mesh" : 0,
            "name" : "Retopo_Sphere.001",
            "scale" : [
                0.7385903000831604,
                0.7385903000831604,
                0.7385903000831604
            ]
        }
    ],
    "materials" : [
        {
            "doubleSided" : true,
            "name" : "Material",
            "normalTexture" : {
                "index" : 0
            },
            "pbrMetallicRoughness" : {
                "baseColorTexture" : {
                    "index" : 1
                },
                "metallicRoughnessTexture" : {
                    "index" : 2
                }
            }
        }
    ],
    "meshes" : [
        {
            "name" : "mesh",
            "primitives" : [
                {
                    "attributes" : {
                        "POSITION" : 0,
                        "NORMAL" : 1,
                        "TEXCOORD_0" : 2,
                        "TEXCOORD_1" : 3
                    },
                    "indices" : 4,
                    "material" : 0
                }
            ]
        }
    ],
    "textures" : [
        {
            "sampler" : 0,
            "source" : 0
        },
        {
            "sampler" : 0,
            "source" : 1
        },
        {
            "sampler" : 0,
            "source" : 2
        }
    ],
    "images" : [
        {
            "mimeType" : "image/png",
            "name" : "dudeUVUnwrapMaterial_Material_Normal",
            "uri" : "dudeUVUnwrapMaterial_Material_Normal.png"
        },
        {
            "mimeType" : "image/png",
            "name" : "dudeUVUnwrapMaterial_Material_BaseColor",
            "uri" : "dudeUVUnwrapMaterial_Material_BaseColor.png"
        },
        {
            "mimeType" : "image/png",
            "name" : "dudeUVUnwrapMaterial_Material_Metallic-dudeUVUnwrapMaterial_Material_Roughness",
            "uri" : "dudeUVUnwrapMaterial_Material_Metallic-dudeUVUnwrapMaterial_Material_Roughness.png"
        }
    ],
    "accessors" : [
        {
            "bufferView" : 0,
            "componentType" : 5126,
            "count" : 45404,
            "max" : [
                1.17703115940094,
                1.6650899648666382,
                1.0243891477584839
            ],
            "min" : [
                -0.9093204140663147,
                -0.998524010181427,
                -0.9192648530006409
            ],
            "type" : "VEC3"
        },
        {
            "bufferView" : 1,
            "componentType" : 5126,
            "count" : 45404,
            "type" : "VEC3"
        },
        {
            "bufferView" : 2,
            "componentType" : 5126,
            "count" : 45404,
            "type" : "VEC2"
        },
        {
            "bufferView" : 3,
            "componentType" : 5126,
            "count" : 45404,
            "type" : "VEC2"
        },
        {
            "bufferView" : 4,
            "componentType" : 5123,
            "count" : 68106,
            "type" : "SCALAR"
        }
    ],
    "bufferViews" : [
        {
            "buffer" : 0,
            "byteLength" : 544848,
            "byteOffset" : 0,
            "target" : 34962
        },
        {
            "buffer" : 0,
            "byteLength" : 544848,
            "byteOffset" : 544848,
            "target" : 34962
        },
        {
            "buffer" : 0,
            "byteLength" : 363232,
            "byteOffset" : 1089696,
            "target" : 34962
        },
        {
            "buffer" : 0,
            "byteLength" : 363232,
            "byteOffset" : 1452928,
            "target" : 34962
        },
        {
            "buffer" : 0,
            "byteLength" : 136212,
            "byteOffset" : 1816160,
            "target" : 34963
        }
    ],
    "samplers" : [
        {
            "magFilter" : 9729,
            "minFilter" : 9987
        }
    ],
    "buffers" : [
        {
            "byteLength" : 1952372,
            "uri" : "dudeTexture2.bin"
        }
    ]
}
