{
    "asset" : {
        "generator" : "Khronos glTF Blender I/O v3.3.32",
        "version" : "2.0"
    },
    "scene" : 0,
    "scenes" : [
        {
            "name" : "Scene",
            "nodes" : [
                0
            ]
        }
    ],
    "nodes" : [
        {
            "mesh" : 0,
            "name" : "Retopo_middle-top.002",
            "scale" : [
                2.192434310913086,
                2.192434310913086,
                2.192434310913086
            ],
            "translation" : [
                -1.4749445915222168,
                4.172927379608154,
                -0.7964593172073364
            ]
        }
    ],
    "materials" : [
        {
            "doubleSided" : true,
            "name" : "Material.004",
            "normalTexture" : {
                "index" : 0
            },
            "pbrMetallicRoughness" : {
                "baseColorTexture" : {
                    "index" : 1
                },
                "metallicRoughnessTexture" : {
                    "index" : 2
                }
            }
        }
    ],
    "meshes" : [
        {
            "name" : "mesh.001",
            "primitives" : [
                {
                    "attributes" : {
                        "POSITION" : 0,
                        "NORMAL" : 1,
                        "TEXCOORD_0" : 2
                    },
                    "indices" : 3,
                    "material" : 0
                }
            ]
        }
    ],
    "textures" : [
        {
            "sampler" : 0,
            "source" : 0
        },
        {
            "sampler" : 0,
            "source" : 1
        },
        {
            "sampler" : 0,
            "source" : 2
        }
    ],
    "images" : [
        {
            "bufferView" : 4,
            "mimeType" : "image/jpeg",
            "name" : "topSubstance_Material.004_Normal"
        },
        {
            "bufferView" : 5,
            "mimeType" : "image/jpeg",
            "name" : "topSubstance_Material.004_BaseColor"
        },
        {
            "bufferView" : 6,
            "mimeType" : "image/jpeg",
            "name" : "topSubstance_Material.004_Metallic-topSubstance_Material.004_Roughness"
        }
    ],
    "accessors" : [
        {
            "bufferView" : 0,
            "componentType" : 5126,
            "count" : 34614,
            "max" : [
                0.9517126083374023,
                -0.31210216879844666,
                0.9933750629425049
            ],
            "min" : [
                -0.9940834641456604,
                -0.9818612337112427,
                -0.9830024242401123
            ],
            "type" : "VEC3"
        },
        {
            "bufferView" : 1,
            "componentType" : 5126,
            "count" : 34614,
            "type" : "VEC3"
        },
        {
            "bufferView" : 2,
            "componentType" : 5126,
            "count" : 34614,
            "type" : "VEC2"
        },
        {
            "bufferView" : 3,
            "componentType" : 5123,
            "count" : 53472,
            "type" : "SCALAR"
        }
    ],
    "bufferViews" : [
        {
            "buffer" : 0,
            "byteLength" : 415368,
            "byteOffset" : 0,
            "target" : 34962
        },
        {
            "buffer" : 0,
            "byteLength" : 415368,
            "byteOffset" : 415368,
            "target" : 34962
        },
        {
            "buffer" : 0,
            "byteLength" : 276912,
            "byteOffset" : 830736,
            "target" : 34962
        },
        {
            "buffer" : 0,
            "byteLength" : 106944,
            "byteOffset" : 1107648,
            "target" : 34963
        },
        {
            "buffer" : 0,
            "byteLength" : 325169,
            "byteOffset" : 1214592
        },
        {
            "buffer" : 0,
            "byteLength" : 315888,
            "byteOffset" : 1539764
        },
        {
            "buffer" : 0,
            "byteLength" : 349707,
            "byteOffset" : 1855652
        }
    ],
    "samplers" : [
        {
            "magFilter" : 9729,
            "minFilter" : 9987
        }
    ],
    "buffers" : [
        {
            "byteLength" : 2205360,
            "uri" : "data:application/octet-stream;base64,"
        }
    ]
}
